<svg width="25" height="24" viewBox="0 0 25 24" fill="none" xmlns="http://www.w3.org/2000/svg">
<g clip-path="url(#clip0_4120_523)">
<path d="M23.0635 12.2527C23.0635 11.505 23.0029 10.7532 22.8736 10.0176H12.498V14.2535H18.4396C18.1931 15.6196 17.4009 16.8282 16.2408 17.5961V20.3446H19.7856C21.8671 18.4287 23.0635 15.5994 23.0635 12.2527Z" fill="#4285F4"/>
<path d="M12.498 23.0001C15.4647 23.0001 17.9666 22.026 19.7895 20.3445L16.2448 17.5961C15.2586 18.267 13.9854 18.647 12.502 18.647C9.63227 18.647 7.19905 16.7109 6.326 14.1079H2.66809V16.9413C4.53544 20.6558 8.33886 23.0001 12.498 23.0001Z" fill="#34A853"/>
<path d="M6.32204 14.108C5.86127 12.7418 5.86127 11.2625 6.32204 9.89635V7.06299H2.66817C1.108 10.1712 1.108 13.8332 2.66817 16.9414L6.32204 14.108Z" fill="#FBBC04"/>
<path d="M12.498 5.35312C14.0662 5.32887 15.5819 5.91899 16.7177 7.00221L19.8582 3.86167C17.8696 1.99431 15.2303 0.967674 12.498 1.00001C8.33886 1.00001 4.53544 3.3443 2.66809 7.06284L6.32196 9.89621C7.19096 7.28919 9.62822 5.35312 12.498 5.35312Z" fill="#EA4335"/>
</g>
<defs>
<clipPath id="clip0_4120_523">
<rect width="21.5635" height="22" fill="white" transform="translate(1.5 1)"/>
</clipPath>
</defs>
</svg>
